<?xml version="1.0" standalone="no"?>
<!DOCTYPE svg PUBLIC "-//W3C//DTD SVG 20010904//EN"
 "http://www.w3.org/TR/2001/REC-SVG-20010904/DTD/svg10.dtd">
<svg version="1.0" xmlns="http://www.w3.org/2000/svg"
 width="275.000000pt" height="183.000000pt" viewBox="0 0 275.000000 183.000000"
 preserveAspectRatio="xMidYMid meet">
<metadata>
Created by potrace 1.15, written by Peter Selinger 2001-2017
</metadata>
<g transform="translate(0.000000,183.000000) scale(0.100000,-0.100000)"
fill="#fff" stroke="none">
<path d="M651 1536 c-49 -18 -106 -70 -130 -119 -20 -42 -21 -56 -21 -498 l0
-455 26 -52 c18 -35 41 -63 72 -85 l47 -32 705 -3 c490 -2 716 0 743 8 48 14
102 61 130 114 22 41 22 47 22 507 l0 466 -30 49 c-19 30 -49 60 -79 79 l-49
30 -701 2 c-533 1 -709 -1 -735 -11z m1452 -75 c21 -13 37 -29 35 -36 -6 -22
-737 -737 -751 -733 -8 2 -184 171 -392 376 -260 256 -375 376 -368 383 37 37
70 38 763 36 l675 -2 38 -24z m-1288 -311 l230 -231 -235 -228 c-181 -176
-237 -225 -242 -212 -8 20 -10 847 -2 879 4 12 9 22 13 22 3 0 110 -104 236
-230z m1360 -679 c-3 -3 -106 95 -228 217 l-222 222 225 225 225 225 3 -441
c1 -243 0 -445 -3 -448z m-956 279 c67 -63 131 -118 143 -123 42 -15 75 4 194
118 65 63 121 114 124 115 3 0 108 -103 234 -229 l228 -228 -33 -24 -34 -24
-689 -3 c-688 -2 -689 -2 -733 19 l-45 22 238 238 c132 132 242 238 245 237 3
-2 61 -55 128 -118z"/>
</g>
</svg>
